<svg xmlns="http://www.w3.org/2000/svg" width="512" height="512" style="fill:#fff" viewBox="0 0 513.193 513.193"><path d="M47.623 386.186C21.54 386.186.49 407.288.49 433.32v64.267c.738 19.881 29.269 19.866 30 0v-17.134h34.267v17.134c.738 19.881 29.269 19.866 30 0V433.32c0-26.085-21.106-47.134-47.134-47.134m17.134 64.267H30.49V433.32c.829-22.718 33.452-22.688 34.267 0zM168.767 482.587h-17.134v-81.4c-.738-19.881-29.269-19.866-30 0v96.4c0 8.284 6.716 15 15 15h32.134c19.88-.738 19.865-29.27 0-30M249.1 482.587h-17.134v-81.4c-.738-19.881-29.269-19.866-30 0v96.4c0 8.284 6.716 15 15 15H249.1c19.88-.738 19.865-29.27 0-30"/><path d="M447.809 426.701C599.506 242.987 467.125 3.798 256.493.585 83.185-2.519-45.178 179.913 15.088 341.933a15 15 0 0 0 14.14 9.994h69.825a15 15 0 0 0 13.355-21.831C56.957 224.91 137.475 93.374 256.492 94.857c135.477-1.11 211.86 161.849 124.484 265.009L353.617 332.5a14.999 14.999 0 0 0-25.293 7.551L296.19 494.543c-2.357 12.226 9.181 19.901 17.74 17.741l154.481-32.135a15 15 0 0 0 7.551-25.293z"/></svg>